<?xml version="1.0" encoding="utf-8"?>
<!-- Generator: Adobe Illustrator 15.0.0, SVG Export Plug-In . SVG Version: 6.00 Build 0)  -->
<!DOCTYPE svg PUBLIC "-//W3C//DTD SVG 1.1//EN" "http://www.w3.org/Graphics/SVG/1.1/DTD/svg11.dtd">
<svg version="1.1" id="Layer_1" xmlns="http://www.w3.org/2000/svg" xmlns:xlink="http://www.w3.org/1999/xlink" x="0px" y="0px"
	 width="32px" height="32px" viewBox="0 0 32 32" enable-background="new 0 0 32 32" xml:space="preserve">
<linearGradient id="SVGID_1_" gradientUnits="userSpaceOnUse" x1="7.231" y1="22.623" x2="14.2213" y2="27.1226">
	<stop  offset="0" style="stop-color:#E94E1B"/>
	<stop  offset="0.0867" style="stop-color:#E2451C"/>
	<stop  offset="0.3777" style="stop-color:#CE2B1F"/>
	<stop  offset="0.6402" style="stop-color:#C21B21"/>
	<stop  offset="0.8478" style="stop-color:#BE1622"/>
</linearGradient>
<circle fill="url(#SVGID_1_)" stroke="#B2B2B2" stroke-width="0.25" stroke-miterlimit="10" cx="10.449" cy="24.695" r="2"/>
<linearGradient id="SVGID_2_" gradientUnits="userSpaceOnUse" x1="12.2935" y1="13.2734" x2="19.2855" y2="17.7741">
	<stop  offset="0" style="stop-color:#E94E1B"/>
	<stop  offset="0.0867" style="stop-color:#E2451C"/>
	<stop  offset="0.3777" style="stop-color:#CE2B1F"/>
	<stop  offset="0.6402" style="stop-color:#C21B21"/>
	<stop  offset="0.8478" style="stop-color:#BE1622"/>
</linearGradient>
<circle fill="url(#SVGID_2_)" stroke="#B2B2B2" stroke-width="0.25" stroke-miterlimit="10" cx="15.512" cy="15.345" r="2"/>
<linearGradient id="SVGID_3_" gradientUnits="userSpaceOnUse" x1="21.6514" y1="8.5215" x2="28.6435" y2="13.0221">
	<stop  offset="0" style="stop-color:#E94E1B"/>
	<stop  offset="0.0867" style="stop-color:#E2451C"/>
	<stop  offset="0.3777" style="stop-color:#CE2B1F"/>
	<stop  offset="0.6402" style="stop-color:#C21B21"/>
	<stop  offset="0.8478" style="stop-color:#BE1622"/>
</linearGradient>
<circle fill="url(#SVGID_3_)" stroke="#B2B2B2" stroke-width="0.25" stroke-miterlimit="10" cx="24.87" cy="10.593" r="2"/>
<g>
	<g>
		<polygon fill="#B2B2B2" points="18.387,16.942 19.661,18.49 18.396,19.68 16.93,18.312 		"/>
		<polygon fill="#B2B2B2" points="20.935,20.037 22.846,22.357 22.062,23.096 19.862,21.045 		"/>
		<polygon fill="#B2B2B2" points="24.757,24.68 27.305,27.773 27.193,27.879 24.261,25.145 		"/>
	</g>
</g>
<g>
	<g>
		<polygon fill="#B2B2B2" points="26.84,14.503 26.979,16.509 25.415,16.781 24.869,14.845 		"/>
		<polygon fill="#B2B2B2" points="27.118,18.516 27.327,21.523 26.777,21.619 25.96,18.717 		"/>
	</g>
</g>
<g>
	<g>
		<polygon fill="#B2B2B2" points="14.704,25.141 16.618,25.773 16.331,27.238 14.319,27.104 		"/>
		<polygon fill="#B2B2B2" points="18.532,26.406 21.403,27.354 21.359,27.578 18.343,27.375 		"/>
	</g>
</g>
<linearGradient id="SVGID_4_" gradientUnits="userSpaceOnUse" x1="6.7222" y1="10.1523" x2="28.6575" y2="23.9759">
	<stop  offset="0" style="stop-color:#E94E1B"/>
	<stop  offset="0.0867" style="stop-color:#E2451C"/>
	<stop  offset="0.3777" style="stop-color:#CE2B1F"/>
	<stop  offset="0.6402" style="stop-color:#C21B21"/>
	<stop  offset="0.8478" style="stop-color:#BE1622"/>
</linearGradient>
<path fill="url(#SVGID_4_)" stroke="#B2B2B2" stroke-width="0.25" stroke-miterlimit="10" d="M5.035,28.965h-2
	c0-14.298,11.632-25.93,25.93-25.93v2C15.77,5.035,5.035,15.769,5.035,28.965z"/>
</svg>
