<?xml version="1.0" encoding="utf-8"?>
<!-- Generator: Adobe Illustrator 15.0.0, SVG Export Plug-In . SVG Version: 6.00 Build 0)  -->
<!DOCTYPE svg PUBLIC "-//W3C//DTD SVG 1.1//EN" "http://www.w3.org/Graphics/SVG/1.1/DTD/svg11.dtd">
<svg version="1.1" id="Layer_1" xmlns="http://www.w3.org/2000/svg" xmlns:xlink="http://www.w3.org/1999/xlink" x="0px" y="0px"
	 width="32px" height="32px" viewBox="0 0 32 32" enable-background="new 0 0 32 32" xml:space="preserve">
<linearGradient id="SVGID_1_" gradientUnits="userSpaceOnUse" x1="2.2061" y1="6.6309" x2="32.4971" y2="26.9738">
	<stop  offset="0" style="stop-color:#E94E1B"/>
	<stop  offset="0.0867" style="stop-color:#E2451C"/>
	<stop  offset="0.3777" style="stop-color:#CE2B1F"/>
	<stop  offset="0.6402" style="stop-color:#C21B21"/>
	<stop  offset="0.8478" style="stop-color:#BE1622"/>
</linearGradient>
<path fill="url(#SVGID_1_)" stroke="#B2B2B2" stroke-width="0.25" stroke-miterlimit="10" d="M16.246,29.062
	c-7.202,0-13.062-5.859-13.062-13.062S9.044,2.939,16.246,2.939v3c-5.548,0-10.062,4.514-10.062,10.062s4.514,10.062,10.062,10.062
	c5.549,0,10.062-4.514,10.062-10.062c0-2.91-1.261-5.677-3.458-7.59l1.971-2.264c2.852,2.484,4.487,6.076,4.487,9.854
	C29.309,23.203,23.449,29.062,16.246,29.062z"/>
<linearGradient id="SVGID_2_" gradientUnits="userSpaceOnUse" x1="13.2959" y1="14.1025" x2="19.7026" y2="18.2264">
	<stop  offset="0" style="stop-color:#E94E1B"/>
	<stop  offset="0.0867" style="stop-color:#E2451C"/>
	<stop  offset="0.3777" style="stop-color:#CE2B1F"/>
	<stop  offset="0.6402" style="stop-color:#C21B21"/>
	<stop  offset="0.8478" style="stop-color:#BE1622"/>
</linearGradient>
<circle fill="url(#SVGID_2_)" stroke="#B2B2B2" stroke-width="0.25" stroke-miterlimit="10" cx="16.247" cy="16.001" r="1.833"/>
</svg>
