<?xml version="1.0" encoding="utf-8"?>
<!-- Generator: Adobe Illustrator 15.0.0, SVG Export Plug-In . SVG Version: 6.00 Build 0)  -->
<!DOCTYPE svg PUBLIC "-//W3C//DTD SVG 1.1//EN" "http://www.w3.org/Graphics/SVG/1.1/DTD/svg11.dtd">
<svg version="1.1" id="Layer_1" xmlns="http://www.w3.org/2000/svg" xmlns:xlink="http://www.w3.org/1999/xlink" x="0px" y="0px"
	 width="32px" height="32px" viewBox="0 0 32 32" enable-background="new 0 0 32 32" xml:space="preserve">
<linearGradient id="SVGID_1_" gradientUnits="userSpaceOnUse" x1="5.5723" y1="6.3564" x2="24.0285" y2="22.4513">
	<stop  offset="0" style="stop-color:#E94E1B"/>
	<stop  offset="0.0867" style="stop-color:#E2451C"/>
	<stop  offset="0.3777" style="stop-color:#CE2B1F"/>
	<stop  offset="0.6402" style="stop-color:#C21B21"/>
	<stop  offset="0.8478" style="stop-color:#BE1622"/>
</linearGradient>
<path fill="url(#SVGID_1_)" stroke="#B2B2B2" stroke-width="0.25" stroke-linejoin="round" stroke-miterlimit="10" d="
	M14.667,26.537c-6.756,0-12.25-5.494-12.25-12.25c0-6.755,5.494-12.25,12.25-12.25c6.754,0,12.25,5.495,12.25,12.25
	C26.917,21.043,21.421,26.537,14.667,26.537z M14.667,3.537c-5.928,0-10.75,4.822-10.75,10.75s4.822,10.75,10.75,10.75
	s10.75-4.822,10.75-10.75S20.595,3.537,14.667,3.537z"/>
<linearGradient id="SVGID_2_" gradientUnits="userSpaceOnUse" x1="18.0039" y1="18.2393" x2="26.4328" y2="26.1741">
	<stop  offset="0" style="stop-color:#E94E1B"/>
	<stop  offset="0.5145" style="stop-color:#CF2C1F"/>
	<stop  offset="0.9234" style="stop-color:#BE1622"/>
</linearGradient>
<polygon fill="url(#SVGID_2_)" stroke="#B2B2B2" stroke-width="0.25" stroke-linejoin="round" stroke-miterlimit="10" points="
	30.14,21.449 18.563,18.422 21.729,29.961 "/>
</svg>
