<?xml version="1.0" encoding="utf-8"?>
<!-- Generator: Adobe Illustrator 15.0.0, SVG Export Plug-In . SVG Version: 6.00 Build 0)  -->
<!DOCTYPE svg PUBLIC "-//W3C//DTD SVG 1.1//EN" "http://www.w3.org/Graphics/SVG/1.1/DTD/svg11.dtd">
<svg version="1.1" id="Layer_1" xmlns="http://www.w3.org/2000/svg" xmlns:xlink="http://www.w3.org/1999/xlink" x="0px" y="0px"
	 width="32px" height="32px" viewBox="0 0 32 32" enable-background="new 0 0 32 32" xml:space="preserve">
<g>
	<linearGradient id="SVGID_1_" gradientUnits="userSpaceOnUse" x1="2.9844" y1="15.1162" x2="28.8164" y2="15.1162">
		<stop  offset="0" style="stop-color:#E94E1B"/>
		<stop  offset="0.0867" style="stop-color:#E2451C"/>
		<stop  offset="0.3777" style="stop-color:#CE2B1F"/>
		<stop  offset="0.6402" style="stop-color:#C21B21"/>
		<stop  offset="0.8478" style="stop-color:#BE1622"/>
	</linearGradient>
	<path fill="url(#SVGID_1_)" stroke="#B2B2B2" stroke-width="0.25" stroke-miterlimit="10" d="M3.21,22.111
		c-0.149-0.311-0.226-0.652-0.226-1.016c0-0.561,0.183-1.168,0.544-1.809l1.742,0.982c-0.249,0.441-0.286,0.707-0.286,0.826
		c0,0.061,0.009,0.109,0.028,0.148L3.21,22.111z M5.747,19.568l-1.573-1.234c0.396-0.504,0.892-1.033,1.476-1.574l1.358,1.468
		C6.501,18.697,6.078,19.148,5.747,19.568z M7.722,17.602l-1.282-1.535c0.5-0.417,1.055-0.843,1.648-1.266l1.159,1.631
		C8.695,16.824,8.182,17.219,7.722,17.602z M10.046,15.883l-1.108-1.664c0.551-0.367,1.132-0.731,1.743-1.09l1.015,1.723
		C11.118,15.193,10.567,15.538,10.046,15.883z M12.542,14.368L11.57,12.62c0.583-0.324,1.188-0.643,1.811-0.952l0.89,1.791
		C13.676,13.754,13.098,14.059,12.542,14.368z M15.152,13.033l-0.85-1.811c0.629-0.296,1.254-0.571,1.871-0.827l0.767,1.848
		C16.351,12.487,15.754,12.75,15.152,13.033z M17.844,11.878l-0.721-1.865c0.66-0.255,1.307-0.485,1.936-0.69l0.619,1.902
		C19.082,11.418,18.469,11.637,17.844,11.878z M20.605,10.939l-0.562-1.92c0.695-0.203,1.371-0.374,2.014-0.51l0.412,1.957
		C21.877,10.591,21.25,10.75,20.605,10.939z M27.121,10.568c-0.086-0.139-0.4-0.316-1.021-0.399l0.266-1.982
		c1.176,0.158,2,0.602,2.451,1.319L27.121,10.568z M23.404,10.292l-0.318-1.975c0.775-0.125,1.496-0.191,2.141-0.196l0.016,2
		C24.699,10.125,24.08,10.182,23.404,10.292z"/>
	<linearGradient id="SVGID_2_" gradientUnits="userSpaceOnUse" x1="5.7832" y1="8.6987" x2="29.3585" y2="25.5465">
		<stop  offset="0" style="stop-color:#E94E1B"/>
		<stop  offset="0.0867" style="stop-color:#E2451C"/>
		<stop  offset="0.3777" style="stop-color:#CE2B1F"/>
		<stop  offset="0.6402" style="stop-color:#C21B21"/>
		<stop  offset="0.8478" style="stop-color:#BE1622"/>
	</linearGradient>
	<path fill="url(#SVGID_2_)" stroke="#B2B2B2" stroke-width="0.25" stroke-miterlimit="10" d="M16,1.506
		C8.008,1.506,1.506,8.008,1.506,16c0,7.993,6.502,14.495,14.494,14.495c7.992,0,14.494-6.502,14.494-14.495
		C30.494,8.008,23.992,1.506,16,1.506z M16,27.779c-6.496,0-11.78-5.283-11.78-11.78C4.22,9.504,9.504,4.22,16,4.22
		c6.496,0,11.779,5.284,11.779,11.779C27.779,22.496,22.496,27.779,16,27.779z"/>
	<linearGradient id="SVGID_3_" gradientUnits="userSpaceOnUse" x1="3.1509" y1="17.25" x2="29.498" y2="17.25">
		<stop  offset="0" style="stop-color:#E94E1B"/>
		<stop  offset="0.0867" style="stop-color:#E2451C"/>
		<stop  offset="0.3777" style="stop-color:#CE2B1F"/>
		<stop  offset="0.6402" style="stop-color:#C21B21"/>
		<stop  offset="0.8478" style="stop-color:#BE1622"/>
	</linearGradient>
	<path fill="url(#SVGID_3_)" stroke="#B2B2B2" stroke-width="0.25" stroke-miterlimit="10" d="M6.887,24.357
		c-2.379,0-3.351-0.84-3.736-1.643l1.887-0.906c0.103,0.209,0.995,0.717,3.685,0.293c2.521-0.396,5.641-1.449,8.787-2.965
		c7.367-3.547,10.254-7.275,9.865-8.087l1.887-0.907c1.52,3.157-4.557,7.854-10.844,10.881c-3.324,1.602-6.652,2.721-9.371,3.146
		C8.222,24.301,7.507,24.357,6.887,24.357z"/>
</g>
</svg>
