<?xml version="1.0" encoding="utf-8"?>
<!-- Generator: Adobe Illustrator 15.0.0, SVG Export Plug-In . SVG Version: 6.00 Build 0)  -->
<!DOCTYPE svg PUBLIC "-//W3C//DTD SVG 1.1//EN" "http://www.w3.org/Graphics/SVG/1.1/DTD/svg11.dtd">
<svg version="1.1" id="Layer_1" xmlns="http://www.w3.org/2000/svg" xmlns:xlink="http://www.w3.org/1999/xlink" x="0px" y="0px"
	 width="32px" height="32px" viewBox="0 0 32 32" enable-background="new 0 0 32 32" xml:space="preserve">
<linearGradient id="SVGID_1_" gradientUnits="userSpaceOnUse" x1="24.1191" y1="0.707" x2="31.5821" y2="8.2233">
	<stop  offset="0" style="stop-color:#E94E1B"/>
	<stop  offset="0.0867" style="stop-color:#E2451C"/>
	<stop  offset="0.3777" style="stop-color:#CE2B1F"/>
	<stop  offset="0.6402" style="stop-color:#C21B21"/>
	<stop  offset="0.8478" style="stop-color:#BE1622"/>
</linearGradient>
<circle fill="url(#SVGID_1_)" stroke="#B2B2B2" stroke-width="0.25" stroke-miterlimit="10" cx="27.764" cy="4.378" r="2.531"/>
<g>
	<linearGradient id="SVGID_2_" gradientUnits="userSpaceOnUse" x1="5.7764" y1="10.2793" x2="21.9017" y2="27.96">
		<stop  offset="0" style="stop-color:#E94E1B"/>
		<stop  offset="0.0867" style="stop-color:#E2451C"/>
		<stop  offset="0.3777" style="stop-color:#CE2B1F"/>
		<stop  offset="0.6402" style="stop-color:#C21B21"/>
		<stop  offset="0.8478" style="stop-color:#BE1622"/>
	</linearGradient>
	<path fill="url(#SVGID_2_)" d="M3.502,30.661c-0.508,0-1-0.185-1.382-0.521c-0.872-0.764-0.96-2.094-0.197-2.965
		c0.059-0.068,0.131-0.14,0.197-0.197l14.625-12.807l-3.775-3.776l11.815-3.165l-3.166,11.814l-3.729-3.729L5.086,29.943
		C4.686,30.399,4.109,30.661,3.502,30.661z"/>
	<g>
		<path fill="#B2B2B2" d="M24.607,7.408l-3.053,11.396l-3.67-3.67L4.992,29.861c-0.392,0.446-0.939,0.675-1.489,0.675
			c-0.462,0-0.925-0.161-1.3-0.489c-0.821-0.72-0.904-1.969-0.186-2.789c0.056-0.064,0.123-0.131,0.186-0.186l14.725-12.895
			l-3.716-3.717L24.607,7.408 M24.961,7.055l-0.418,0.112l-11.396,3.053l-0.418,0.112l0.306,0.306l3.527,3.528L2.038,26.884
			c-0.071,0.062-0.147,0.138-0.21,0.211c-0.808,0.921-0.714,2.331,0.21,3.141c0.405,0.354,0.926,0.551,1.464,0.551
			c0.642,0,1.253-0.277,1.677-0.76L17.896,15.5l3.48,3.481l0.307,0.307l0.111-0.419L24.85,7.473L24.961,7.055L24.961,7.055z"/>
	</g>
</g>
</svg>
