<?xml version="1.0" encoding="utf-8"?>
<!-- Generator: Adobe Illustrator 15.0.0, SVG Export Plug-In . SVG Version: 6.00 Build 0)  -->
<!DOCTYPE svg PUBLIC "-//W3C//DTD SVG 1.1//EN" "http://www.w3.org/Graphics/SVG/1.1/DTD/svg11.dtd">
<svg version="1.1" id="Layer_1" xmlns="http://www.w3.org/2000/svg" xmlns:xlink="http://www.w3.org/1999/xlink" x="0px" y="0px"
	 width="72px" height="72px" viewBox="0 0 72 72" enable-background="new 0 0 72 72" xml:space="preserve">
<g>
	<radialGradient id="SVGID_1_" cx="23.541" cy="24.6729" r="34.422" gradientUnits="userSpaceOnUse">
		<stop  offset="0.2945" style="stop-color:#E94E1B"/>
		<stop  offset="1" style="stop-color:#BE1622"/>
	</radialGradient>
	<path fill="url(#SVGID_1_)" d="M3.999,70.214c-1.378,0-2.5-1.16-2.5-2.586V4.074c0-1.426,1.122-2.586,2.5-2.586H68
		c1.379,0,2.5,1.16,2.5,2.586v63.554c0,1.426-1.121,2.586-2.5,2.586H3.999z"/>
	<path fill="#4B191C" d="M68,2.988c0.552,0,1,0.487,1,1.086v63.554c0,0.599-0.448,1.086-1,1.086H3.999c-0.551,0-1-0.487-1-1.086
		V4.074c0-0.599,0.449-1.086,1-1.086H68 M68-0.012H3.999c-2.209,0-4,1.83-4,4.086v63.554c0,2.257,1.791,4.086,4,4.086H68
		c2.209,0,4-1.829,4-4.086V4.074C72,1.818,70.209-0.012,68-0.012L68-0.012z"/>
</g>
<g>
	<g>
		<path fill="#FFFFFF" d="M56.728,28.533c-2.874,0-5.213-2.339-5.213-5.214s2.339-5.214,5.213-5.214s5.212,2.339,5.212,5.214
			S59.602,28.533,56.728,28.533z"/>
		<path fill="#4B191C" d="M56.728,18.605c2.605,0,4.712,2.113,4.712,4.714c0,2.605-2.106,4.714-4.712,4.714
			c-2.601,0-4.713-2.109-4.713-4.714C52.015,20.718,54.127,18.605,56.728,18.605 M56.728,17.605c-3.15,0-5.713,2.563-5.713,5.714
			s2.562,5.714,5.713,5.714c3.149,0,5.712-2.563,5.712-5.714S59.877,17.605,56.728,17.605L56.728,17.605z"/>
	</g>
	<g>
		<path fill="#FFFFFF" d="M34.673,39.73c-2.875,0-5.213-2.339-5.213-5.214c0-2.874,2.339-5.211,5.213-5.211
			c2.875,0,5.214,2.338,5.214,5.211C39.887,37.392,37.548,39.73,34.673,39.73z"/>
		<path fill="#4B191C" d="M34.673,29.805c2.605,0,4.714,2.112,4.714,4.711c0,2.606-2.108,4.714-4.714,4.714
			c-2.6,0-4.713-2.108-4.713-4.714C29.959,31.917,32.073,29.805,34.673,29.805 M34.673,28.805c-3.15,0-5.713,2.562-5.713,5.711
			c0,3.151,2.563,5.714,5.713,5.714s5.714-2.563,5.714-5.714C40.387,31.367,37.823,28.805,34.673,28.805L34.673,28.805z"/>
	</g>
	<g>
		<path fill="#FFFFFF" d="M22.743,61.768c-2.875,0-5.213-2.339-5.213-5.213s2.339-5.213,5.213-5.213
			c2.874,0,5.212,2.339,5.212,5.213S25.617,61.768,22.743,61.768z"/>
		<path fill="#4B191C" d="M22.743,51.842c2.605,0,4.712,2.112,4.712,4.713c0,2.605-2.107,4.713-4.712,4.713
			c-2.601,0-4.713-2.107-4.713-4.713C18.029,53.954,20.142,51.842,22.743,51.842 M22.743,50.842c-3.15,0-5.713,2.562-5.713,5.713
			s2.563,5.713,5.713,5.713c3.15,0,5.712-2.562,5.712-5.713S25.893,50.842,22.743,50.842L22.743,50.842z"/>
	</g>
	<g>
		<g>
			<polygon fill="#FFFFFF" points="37.282,41.511 41.495,37.554 45.135,41.973 41.469,45.417 			"/>
			<path fill="#4B191C" d="M41.448,38.283l3.003,3.646l-2.983,2.804l-3.454-3.223L41.448,38.283 M41.541,36.823l-0.777,0.731
				l-3.435,3.227l-0.779,0.731l0.781,0.729l3.454,3.223l0.686,0.639l0.682-0.642l2.983-2.804l0.683-0.642l-0.596-0.723l-3.003-3.646
				L41.541,36.823L41.541,36.823z"/>
		</g>
		<g>
			<polygon fill="#FFFFFF" points="44.193,47.953 47.499,44.844 52.642,51.089 50.108,53.465 			"/>
			<path fill="#4B191C" d="M47.452,45.574l4.506,5.471l-1.851,1.735l-5.183-4.829L47.452,45.574 M47.545,44.114l-0.778,0.731
				l-2.527,2.377l-0.777,0.731l0.781,0.729l5.183,4.829l0.684,0.638l0.682-0.64l1.851-1.735l0.685-0.642l-0.597-0.724l-4.506-5.471
				L47.545,44.114L47.545,44.114z"/>
		</g>
		<g>
			<polygon fill="#FFFFFF" points="54.56,57.614 56.506,55.787 63.152,63.854 62.2,64.737 			"/>
			<path fill="#4B191C" d="M56.459,56.517l6.008,7.292l-0.266,0.246l-6.91-6.441L56.459,56.517 M56.553,55.058l-0.778,0.729
				l-1.168,1.097l-0.779,0.732l0.782,0.729l6.91,6.441l0.68,0.634l0.682-0.632l0.266-0.246l0.692-0.641l-0.601-0.729l-6.008-7.292
				L56.553,55.058L56.553,55.058z"/>
		</g>
	</g>
	<g>
		<polygon fill="#FFFFFF" points="56.092,32.942 61.832,31.947 62.226,37.675 57.651,38.473 		"/>
		<path fill="#4B191C" d="M61.371,32.535l0.325,4.725l-3.687,0.643l-1.286-4.562L61.371,32.535 M62.293,31.36L61.2,31.549
			l-4.647,0.805l-1.093,0.189l0.301,1.067l1.286,4.562l0.245,0.869l0.89-0.155l3.687-0.643l0.888-0.155l-0.062-0.898l-0.325-4.726
			L62.293,31.36L62.293,31.36z"/>
	</g>
	<g>
		<polygon fill="#FFFFFF" points="58.664,42.066 62.487,41.403 63.048,49.492 60.862,49.873 		"/>
		<path fill="#4B191C" d="M62.026,41.99l0.491,7.087l-1.296,0.226l-1.926-6.839L62.026,41.99 M62.947,40.815l-1.092,0.189
			l-2.73,0.474l-1.092,0.189l0.3,1.067l1.926,6.839l0.245,0.868l0.89-0.154l1.296-0.226l0.888-0.155l-0.062-0.899l-0.491-7.087
			L62.947,40.815L62.947,40.815z"/>
	</g>
	<g>
		<g>
			<polygon fill="#FFFFFF" points="31.263,62.689 32.388,56.95 37.855,58.76 37.009,63.078 			"/>
			<path fill="#4B191C" d="M32.77,57.604l4.511,1.492l-0.677,3.454l-4.74-0.321L32.77,57.604 M32.006,56.298l-0.218,1.113
				l-0.907,4.625l-0.218,1.113l1.132,0.077l4.74,0.321l0.879,0.06l0.169-0.865l0.678-3.454l0.17-0.865l-0.837-0.276l-4.511-1.492
				L32.006,56.298L32.006,56.298z"/>
		</g>
		<g>
			<polygon fill="#FFFFFF" points="40.745,63.327 41.408,59.929 49.134,62.482 48.859,63.873 			"/>
			<path fill="#4B191C" d="M41.79,60.582l6.768,2.236l-0.104,0.526l-7.109-0.479L41.79,60.582 M41.025,59.276l-0.217,1.114
				l-0.445,2.284l-0.217,1.113l1.131,0.076l7.109,0.479l0.879,0.059l0.17-0.863l0.104-0.526l0.17-0.866l-0.838-0.276l-6.768-2.236
				L41.025,59.276L41.025,59.276z"/>
		</g>
	</g>
	<g>
		<path fill="#FFFFFF" d="M4.77,67.112v-0.5c0-33.97,27.637-61.606,61.606-61.606h0.5v5.714h-0.5
			c-30.819,0-55.893,25.073-55.893,55.893v0.5H4.77z"/>
		<path fill="#4B191C" d="M66.376,5.506v4.714c-31.096,0-56.393,25.296-56.393,56.393H5.27C5.27,32.919,32.682,5.506,66.376,5.506
			 M67.376,4.506h-1C32.13,4.506,4.27,32.367,4.27,66.612v1h1h4.714h1v-1c0-30.543,24.849-55.393,55.393-55.393h1v-1V5.506V4.506
			L67.376,4.506z"/>
	</g>
</g>
<linearGradient id="SVGID_2_" gradientUnits="userSpaceOnUse" x1="18.3667" y1="3.3579" x2="60.0464" y2="61.95">
	<stop  offset="0" style="stop-color:#FFFFFF"/>
	<stop  offset="1" style="stop-color:#FFFFFF;stop-opacity:0"/>
</linearGradient>
<path opacity="0.7" fill="url(#SVGID_2_)" d="M0,56.303c0,0,2.667-47.103,72-39.255c0-5.847,0-17.059,0-17.059H0V56.303z"/>
</svg>
