<?xml version="1.0" encoding="utf-8"?>
<!-- Generator: Adobe Illustrator 15.0.0, SVG Export Plug-In . SVG Version: 6.00 Build 0)  -->
<!DOCTYPE svg PUBLIC "-//W3C//DTD SVG 1.1//EN" "http://www.w3.org/Graphics/SVG/1.1/DTD/svg11.dtd">
<svg version="1.1" id="Layer_1" xmlns="http://www.w3.org/2000/svg" xmlns:xlink="http://www.w3.org/1999/xlink" x="0px" y="0px"
	 width="32px" height="32px" viewBox="0 0 32 32" enable-background="new 0 0 32 32" xml:space="preserve">
<linearGradient id="SVGID_1_" gradientUnits="userSpaceOnUse" x1="8.7144" y1="10.0942" x2="23.0423" y2="21.6495">
	<stop  offset="0" style="stop-color:#E94E1B"/>
	<stop  offset="0.5145" style="stop-color:#CF2C1F"/>
	<stop  offset="0.9234" style="stop-color:#BE1622"/>
</linearGradient>
<path fill="url(#SVGID_1_)" stroke="#B2B2B2" stroke-width="0.25" stroke-linejoin="round" stroke-miterlimit="10" d="M9.387,9.459
	C12.607,8.977,19.1,8.951,22.86,9.52c0.562,4.094,0.532,9.229-0.026,13.031c-2.847,0.469-10.014,0.557-13.469,0.051
	C8.9,19.637,8.804,13.506,9.387,9.459z"/>
<linearGradient id="SVGID_2_" gradientUnits="userSpaceOnUse" x1="17.7178" y1="18.6533" x2="25.6813" y2="25.6681">
	<stop  offset="0" style="stop-color:#E94E1B"/>
	<stop  offset="0.5145" style="stop-color:#CF2C1F"/>
	<stop  offset="0.9234" style="stop-color:#BE1622"/>
</linearGradient>
<path fill="url(#SVGID_2_)" stroke="#B2B2B2" stroke-width="0.25" stroke-linejoin="round" stroke-miterlimit="10" d="
	M22.418,22.461l-1.312,4.873c0,0,4.875-2.186,6.125-5.998C24.918,21.898,22.418,22.461,22.418,22.461z"/>
<linearGradient id="SVGID_3_" gradientUnits="userSpaceOnUse" x1="462.6777" y1="639.3926" x2="469.3271" y2="632.8578" gradientTransform="matrix(-4.371139e-08 1 -1 -4.371139e-08 644.689 -442.1899)">
	<stop  offset="0" style="stop-color:#E94E1B"/>
	<stop  offset="0.5145" style="stop-color:#CF2C1F"/>
	<stop  offset="0.9234" style="stop-color:#BE1622"/>
</linearGradient>
<path fill="url(#SVGID_3_)" stroke="#B2B2B2" stroke-width="0.25" stroke-linejoin="round" stroke-miterlimit="10" d="M9.732,22.586
	l-4.875-1.312c0,0,2.188,4.875,6,6.123C10.295,25.086,9.732,22.586,9.732,22.586z"/>
<linearGradient id="SVGID_4_" gradientUnits="userSpaceOnUse" x1="1060.998" y1="180.2734" x2="1056.647" y2="175.9626" gradientTransform="matrix(-1 0 0 -1 1069.3145 188.4395)">
	<stop  offset="0" style="stop-color:#E94E1B"/>
	<stop  offset="0.5145" style="stop-color:#CF2C1F"/>
	<stop  offset="0.9234" style="stop-color:#BE1622"/>
</linearGradient>
<path fill="url(#SVGID_4_)" stroke="#B2B2B2" stroke-width="0.25" stroke-linejoin="round" stroke-miterlimit="10" d="M9.607,9.586
	l1.312-4.875c0,0-4.875,2.188-6.125,6C7.107,10.148,9.607,9.586,9.607,9.586z"/>
<linearGradient id="SVGID_5_" gradientUnits="userSpaceOnUse" x1="589.2451" y1="-433.4531" x2="583.9519" y2="-427.7621" gradientTransform="matrix(4.371139e-08 -1 1 4.371139e-08 454.5625 595.0649)">
	<stop  offset="0" style="stop-color:#E94E1B"/>
	<stop  offset="0.5145" style="stop-color:#CF2C1F"/>
	<stop  offset="0.9234" style="stop-color:#BE1622"/>
</linearGradient>
<path fill="url(#SVGID_5_)" stroke="#B2B2B2" stroke-width="0.25" stroke-linejoin="round" stroke-miterlimit="10" d="M22.585,9.523
	l4.875,1.312c0,0-2.188-4.875-6-6.125C22.022,7.023,22.585,9.523,22.585,9.523z"/>
<linearGradient id="SVGID_6_" gradientUnits="userSpaceOnUse" x1="7.126" y1="9.9526" x2="28.5958" y2="24.5824">
	<stop  offset="0" style="stop-color:#E94E1B"/>
	<stop  offset="0.5145" style="stop-color:#CF2C1F"/>
	<stop  offset="0.9234" style="stop-color:#BE1622"/>
</linearGradient>
<path fill="url(#SVGID_6_)" stroke="#B2B2B2" stroke-width="0.25" stroke-linejoin="round" stroke-miterlimit="10" d="M16,3.006
	C8.835,3.006,3.006,8.835,3.006,16S8.835,28.994,16,28.994S28.994,23.165,28.994,16S23.165,3.006,16,3.006z M27.14,20.419
	c-1.34,0.544-2.656,0.966-3.939,1.289c0.84-4.424,0.572-8.374,0.014-11.396c1.281,0.323,2.595,0.745,3.934,1.289
	c0.54,1.364,0.847,2.845,0.847,4.398C27.994,17.562,27.686,19.05,27.14,20.419z M10.013,10.009
	c3.107-0.627,7.356-0.966,12.146,0.057c0.611,3.06,0.942,7.21-0.023,11.89c-4.786,1.017-9.036,0.674-12.142,0.046
	C9.372,18.928,9.03,14.736,10.013,10.009z M26.547,10.294c-1.207-0.443-2.394-0.793-3.553-1.065
	c-0.342-1.541-0.737-2.776-1.052-3.633C23.878,6.705,25.481,8.331,26.547,10.294z M20.602,4.927
	c0.237,0.539,0.821,1.975,1.321,4.068c-4.541-0.896-8.593-0.616-11.671-0.042c0.327-1.33,0.765-2.699,1.33-4.094
	C12.951,4.314,14.439,4.006,16,4.006C17.63,4.006,19.184,4.336,20.602,4.927z M10.272,5.465c-0.463,1.262-0.821,2.5-1.099,3.709
	c-1.59,0.355-2.851,0.768-3.701,1.086C6.579,8.238,8.25,6.568,10.272,5.465z M4.858,11.585c0.475-0.212,1.927-0.819,4.089-1.34
	c-0.858,4.481-0.578,8.479-0.008,11.521c-2.147-0.517-3.593-1.117-4.073-1.332c-0.55-1.374-0.86-2.867-0.86-4.435
	C4.006,14.44,4.314,12.953,4.858,11.585z M5.486,21.763c0.847,0.316,2.096,0.725,3.673,1.077c0.353,1.575,0.761,2.825,1.077,3.673
	C8.238,25.413,6.586,23.761,5.486,21.763z M11.563,27.134c-0.217-0.483-0.817-1.928-1.334-4.072
	c1.665,0.312,3.616,0.538,5.777,0.538c1.828,0,3.808-0.169,5.887-0.577c-0.323,1.319-0.756,2.676-1.312,4.059
	c-1.413,0.586-2.959,0.913-4.581,0.913C14.432,27.994,12.938,27.684,11.563,27.134z M21.903,26.428
	c0.449-1.236,0.799-2.449,1.069-3.634c1.163-0.272,2.356-0.632,3.569-1.077C25.468,23.688,23.853,25.32,21.903,26.428z"/>
</svg>
